<?xml version="1.0" encoding="UTF-8"?>
<svg version="1.1" xmlns="http://www.w3.org/2000/svg" width="141" height="138">
<path d="M0 0 C0.804375 0.804375 1.60875 1.60875 2.4375 2.4375 C2.4375 3.0975 2.4375 3.7575 2.4375 4.4375 C3.015 4.64375 3.5925 4.85 4.1875 5.0625 C7.90798855 7.33613189 9.90850772 10.50029083 11.04003906 14.64404297 C11.49784607 17.11167307 11.86208507 19.5740329 12.1875 22.0625 C12.31253906 22.908125 12.43757813 23.75375 12.56640625 24.625 C13.09381685 28.299487 13.4375 31.71077475 13.4375 35.4375 C11.14055889 37.91112889 9.81641755 38.40592354 6.4375 38.6875 C3.96249066 38.48124922 1.80245665 38.16517897 -0.5625 37.4375 C-1.2225 38.4275 -1.8825 39.4175 -2.5625 40.4375 C-1.03518416 41.32547433 0.49526874 42.20822884 2.03515625 43.07421875 C3.90984433 44.13806613 5.76875978 45.22972207 7.62109375 46.33203125 C8.75675781 46.98558594 9.89242187 47.63914063 11.0625 48.3125 C12.69058594 49.26769531 12.69058594 49.26769531 14.3515625 50.2421875 C17.28811397 51.70867312 17.28811397 51.70867312 19.87890625 50.890625 C20.72324219 50.41109375 21.56757812 49.9315625 22.4375 49.4375 C22.99856445 49.13150879 23.55962891 48.82551758 24.13769531 48.51025391 C26.02548475 47.47172067 27.88858776 46.39752505 29.75 45.3125 C30.39517578 44.93996094 31.04035156 44.56742188 31.70507812 44.18359375 C33.28425945 43.27117787 34.86111864 42.35474491 36.4375 41.4375 C35.82261719 40.91800781 35.20773438 40.39851563 34.57421875 39.86328125 C33.76597656 39.16589844 32.95773438 38.46851563 32.125 37.75 C31.32449219 37.06550781 30.52398437 36.38101563 29.69921875 35.67578125 C27.41703691 33.41724896 26.04125615 31.19745245 24.4375 28.4375 C22.37049345 27.10956394 22.37049345 27.10956394 20.4375 26.4375 C20.25 24.0625 20.25 24.0625 20.4375 21.4375 C21.4275 20.7775 22.4175 20.1175 23.4375 19.4375 C24.18974436 17.73677362 24.93720866 16.033261 25.6328125 14.30859375 C28.47088052 7.70939676 32.52715812 4.34253835 38.875 1.25 C45.57278664 -0.87368845 51.31678475 -0.45160317 58.25390625 0.28125 C61.48820275 0.43998848 64.27367044 0.08453883 67.4375 -0.5625 C67.9325 3.3975 67.9325 3.3975 68.4375 7.4375 C69.0975 7.4375 69.7575 7.4375 70.4375 7.4375 C70.82421875 8.25734375 71.2109375 9.0771875 71.609375 9.921875 C72.39054687 11.53835937 72.39054687 11.53835937 73.1875 13.1875 C73.69796875 14.25484375 74.2084375 15.3221875 74.734375 16.421875 C76.36235639 19.30444755 77.98594908 21.24176309 80.4375 23.4375 C78.92990122 27.20649696 78.92990122 27.20649696 76.5390625 28.328125 C74.03901332 29.64785357 73.12230271 30.97720216 71.5625 33.3125 C68.89226421 37.0590043 66.41399777 39.16521556 62.4375 41.4375 C64.20248117 43.63649416 64.20248117 43.63649416 66.42578125 43.58984375 C70.68484516 43.19614877 72.97249041 42.7791397 76.5 40.1875 C78.58880828 37.22273986 78.94222436 35.97057049 78.4375 32.4375 C80.4175 31.4475 80.4175 31.4475 82.4375 30.4375 C83.4275 31.0975 84.4175 31.7575 85.4375 32.4375 C84.91076428 38.05601435 82.05455841 43.1003757 77.8671875 46.83984375 C72.45216489 50.37849806 66.83291562 50.07354265 60.6640625 48.91796875 C59.92929688 48.75941406 59.19453125 48.60085937 58.4375 48.4375 C58.6540625 49.61505859 58.6540625 49.61505859 58.875 50.81640625 C60.81397059 61.79044118 60.81397059 61.79044118 60.4375 67.4375 C60.1075 67.7675 59.7775 68.0975 59.4375 68.4375 C59.26986797 72.46066877 59.52652652 76.14613783 60.125 80.125 C60.52682461 83.30701652 60.62125663 84.10993383 59 87 C58.484375 87.474375 57.96875 87.94875 57.4375 88.4375 C51.74784483 87.53232759 51.74784483 87.53232759 49.1875 86.75 C48.61 86.646875 48.0325 86.54375 47.4375 86.4375 C46.7775 87.0975 46.1175 87.7575 45.4375 88.4375 C42.9375 88.6875 42.9375 88.6875 40.4375 88.4375 C38.4375 86.4375 38.4375 86.4375 38.20703125 84.08203125 C38.28758745 78.77264524 38.50743933 73.66909127 39.4375 68.4375 C38.7775 68.4375 38.1175 68.4375 37.4375 68.4375 C38.40105353 54.8042426 38.40105353 54.8042426 39.4375 48.4375 C33.21024933 50.09141768 27.89787442 51.99509004 22.4375 55.4375 C22.458125 56.736875 22.47875 58.03625 22.5 59.375 C22.52149454 60.72915633 22.50898199 62.08506083 22.4375 63.4375 C21.4375 64.4375 21.4375 64.4375 17.875 64.5 C16.740625 64.479375 15.60625 64.45875 14.4375 64.4375 C12.56129578 61.27140538 12.34087178 59.07917599 12.4375 55.4375 C10.52338443 54.45335567 8.6061033 53.47536651 6.6875 52.5 C5.62015625 51.95472656 4.5528125 51.40945312 3.453125 50.84765625 C0.0581601 49.21173568 0.0581601 49.21173568 -3.5625 48.4375 C-4.5525 49.0975 -5.5425 49.7575 -6.5625 50.4375 C-6.59211025 53.37779737 -6.47263098 56.08928791 -6.1875 59 C-5.94065629 61.81356117 -5.73305756 64.61741904 -5.5625 67.4375 C-5.8925 67.7675 -6.2225 68.0975 -6.5625 68.4375 C-6.62286517 72.26691546 -6.58238773 76.08329213 -6.5234375 79.91210938 C-6.51183594 81.11383789 -6.51183594 81.11383789 -6.5 82.33984375 C-6.48839844 83.07710693 -6.47679687 83.81437012 -6.46484375 84.57397461 C-6.5625 86.4375 -6.5625 86.4375 -7.5625 88.4375 C-10.9375 88.5625 -10.9375 88.5625 -14.5625 88.4375 C-15.5525 87.4475 -15.5525 87.4475 -16.5625 86.4375 C-16.47329212 82.77997689 -16.18048727 79.19810088 -15.83984375 75.55859375 C-15.67571839 73.52274083 -15.61230124 71.47935065 -15.5625 69.4375 C-16.5525 68.4475 -16.5525 68.4475 -17.5625 67.4375 C-18.5525 67.7675 -19.5425 68.0975 -20.5625 68.4375 C-20.38332031 69.62988281 -20.20414063 70.82226562 -20.01953125 72.05078125 C-19.80381517 73.61706761 -19.58901919 75.18348088 -19.375 76.75 C-19.19420898 77.92852539 -19.19420898 77.92852539 -19.00976562 79.13085938 C-18.90986328 79.88818359 -18.80996094 80.64550781 -18.70703125 81.42578125 C-18.60753174 82.12227783 -18.50803223 82.81877441 -18.40551758 83.53637695 C-18.5625 85.4375 -18.5625 85.4375 -19.8269043 87.20385742 C-21.5625 88.4375 -21.5625 88.4375 -25.1875 88.1875 C-28.5625 87.4375 -28.5625 87.4375 -29.5625 86.4375 C-29.41102215 82.66191468 -29.15711978 78.90639336 -28.87890625 75.13867188 C-28.82605469 74.34396484 -28.77320312 73.54925781 -28.71875 72.73046875 C-28.66525391 72.0036792 -28.61175781 71.27688965 -28.55664062 70.52807617 C-28.56279421 68.33252999 -29.02365981 66.55613384 -29.5625 64.4375 C-29.3489866 62.22024548 -29.04967725 60.01037015 -28.6875 57.8125 C-28.50445313 56.66523437 -28.32140625 55.51796875 -28.1328125 54.3359375 C-27.5625 51.4375 -27.5625 51.4375 -26.5625 49.4375 C-27.7690625 49.685 -27.7690625 49.685 -29 49.9375 C-35.82182818 50.89494957 -41.62989006 51.48246133 -47.5625 47.4375 C-50.69691473 44.08440517 -53.63142082 40.62150489 -55.5625 36.4375 C-55.25 33.625 -55.25 33.625 -54.5625 31.4375 C-52.9125 31.4375 -51.2625 31.4375 -49.5625 31.4375 C-48.29521917 33.7186055 -47.56889229 35.38508325 -47.25 38 C-46.7553404 40.59930431 -46.7553404 40.59930431 -44.5 42.25 C-40.50475147 43.86510047 -37.86137884 43.86034054 -33.5625 43.4375 C-32.9025 42.4475 -32.2425 41.4575 -31.5625 40.4375 C-34.341043 38.65923248 -35.67648096 38.44157075 -39.0625 38.5625 C-42.5625 38.4375 -42.5625 38.4375 -45.0625 36.875 C-47.16287792 33.46188588 -46.35517069 31.25673152 -45.5625 27.4375 C-45.8925 27.1075 -46.2225 26.7775 -46.5625 26.4375 C-46.6875 23.4375 -46.6875 23.4375 -46.5625 20.4375 C-46.2325 20.1075 -45.9025 19.7775 -45.5625 19.4375 C-45.3371669 17.4095021 -45.11482815 15.38075126 -44.94140625 13.34765625 C-44.5625 11.4375 -44.5625 11.4375 -42.5625 9.4375 C-42.294375 8.32375 -42.02625 7.21 -41.75 6.0625 C-40.36783505 1.84325963 -39.20810979 0.84028827 -35.5625 -1.5625 C-34.675625 -2.284375 -33.78875 -3.00625 -32.875 -3.75 C-23.13800947 -9.07778727 -8.59096046 -6.86871603 0 0 Z M47.4375 67.4375 C47.1075 67.7675 46.7775 68.0975 46.4375 68.4375 C46.47559055 70.56471057 46.59309297 72.69074227 46.75 74.8125 C46.82863281 75.97523437 46.90726562 77.13796875 46.98828125 78.3359375 C47.23390549 81.59762247 47.23390549 81.59762247 49.4375 84.4375 C51.00585699 79.41875763 52.08092001 74.6970548 52.4375 69.4375 C51.7775 68.7775 51.1175 68.1175 50.4375 67.4375 C49.4475 67.4375 48.4575 67.4375 47.4375 67.4375 Z " fill="#DCE9C3" transform="translate(55.5625,27.5625)"/>
<path d="M0 0 C0.804375 0.804375 1.60875 1.60875 2.4375 2.4375 C2.4375 3.0975 2.4375 3.7575 2.4375 4.4375 C3.015 4.64375 3.5925 4.85 4.1875 5.0625 C7.90798855 7.33613189 9.90850772 10.50029083 11.04003906 14.64404297 C11.49784607 17.11167307 11.86208507 19.5740329 12.1875 22.0625 C12.31253906 22.908125 12.43757813 23.75375 12.56640625 24.625 C13.09381685 28.299487 13.4375 31.71077475 13.4375 35.4375 C11.09152305 37.96393672 9.76996862 38.41090251 6.3125 38.6875 C3.4375 38.4375 3.4375 38.4375 1.4375 37.4375 C1.4375 36.7775 1.4375 36.1175 1.4375 35.4375 C-0.98190599 36.84882016 -3.28241352 38.2040946 -5.4375 40 C-10.39659462 43.35468165 -16.68131945 44.39150829 -22.5625 43.4375 C-24.72153851 42.5538935 -26.71516483 41.51917968 -28.7578125 40.39453125 C-32.28139906 38.52596262 -35.18395632 38.41757665 -39.125 38.625 C-42.5625 38.4375 -42.5625 38.4375 -45.0625 36.875 C-47.16287792 33.46188588 -46.35517069 31.25673152 -45.5625 27.4375 C-45.8925 27.1075 -46.2225 26.7775 -46.5625 26.4375 C-46.6875 23.4375 -46.6875 23.4375 -46.5625 20.4375 C-46.2325 20.1075 -45.9025 19.7775 -45.5625 19.4375 C-45.3371669 17.4095021 -45.11482815 15.38075126 -44.94140625 13.34765625 C-44.5625 11.4375 -44.5625 11.4375 -42.5625 9.4375 C-42.294375 8.32375 -42.02625 7.21 -41.75 6.0625 C-40.36783505 1.84325963 -39.20810979 0.84028827 -35.5625 -1.5625 C-34.675625 -2.284375 -33.78875 -3.00625 -32.875 -3.75 C-23.13800947 -9.07778727 -8.59096046 -6.86871603 0 0 Z " fill="#B78362" transform="translate(55.5625,27.5625)"/>
<path d="M0 0 C3.33457067 0.15157139 6.17913534 -0.16823537 9.4375 -0.84375 C9.9325 3.11625 9.9325 3.11625 10.4375 7.15625 C11.0975 7.15625 11.7575 7.15625 12.4375 7.15625 C12.82421875 7.97609375 13.2109375 8.7959375 13.609375 9.640625 C14.39054687 11.25710937 14.39054687 11.25710937 15.1875 12.90625 C15.69796875 13.97359375 16.2084375 15.0409375 16.734375 16.140625 C18.36235639 19.02319755 19.98594908 20.96051309 22.4375 23.15625 C20.92993189 26.92517028 20.92993189 26.92517028 18.53125 28.05078125 C16.05001441 29.36083661 15.20544075 30.63379997 13.6875 32.96875 C10.10942477 37.95088007 5.86451175 40.98385124 0.0625 42.96875 C-1.236875 43.0615625 -1.236875 43.0615625 -2.5625 43.15625 C-3.25730469 43.218125 -3.95210937 43.28 -4.66796875 43.34375 C-12.4671782 43.74053013 -20.7468058 42.45433699 -26.80859375 37.21484375 C-29.34903254 34.34694715 -31.43871449 31.34192827 -33.5625 28.15625 C-35.61253955 26.96392387 -35.61253955 26.96392387 -37.5625 26.15625 C-37.75 23.78125 -37.75 23.78125 -37.5625 21.15625 C-36.5725 20.49625 -35.5825 19.83625 -34.5625 19.15625 C-33.81025564 17.45552362 -33.06279134 15.752011 -32.3671875 14.02734375 C-29.52559718 7.41995655 -25.4570261 4.0061499 -19.0625 0.96875 C-12.5384376 -1.15157028 -6.73526129 -0.64989363 0 0 Z " fill="#F7D9BB" transform="translate(113.5625,27.84375)"/>
<path d="M0 0 C1.32 0.66 2.64 1.32 4 2 C3.47326428 7.61851435 0.61705841 12.6628757 -3.5703125 16.40234375 C-8.98533511 19.94099806 -14.60458438 19.63604265 -20.7734375 18.48046875 C-21.87558594 18.24263672 -21.87558594 18.24263672 -23 18 C-22.855625 18.78503906 -22.71125 19.57007812 -22.5625 20.37890625 C-20.62352941 31.35294118 -20.62352941 31.35294118 -21 37 C-21.33 37.33 -21.66 37.66 -22 38 C-22.16763203 42.02316877 -21.91097348 45.70863783 -21.3125 49.6875 C-20.91067539 52.86951652 -20.81624337 53.67243383 -22.4375 56.5625 C-22.953125 57.036875 -23.46875 57.51125 -24 58 C-29.68965517 57.09482759 -29.68965517 57.09482759 -32.25 56.3125 C-32.8275 56.209375 -33.405 56.10625 -34 56 C-34.66 56.66 -35.32 57.32 -36 58 C-38.5 58.25 -38.5 58.25 -41 58 C-43 56 -43 56 -43.23046875 53.64453125 C-43.14991255 48.33514524 -42.93006067 43.23159127 -42 38 C-42.66 38 -43.32 38 -44 38 C-43.03644647 24.3667426 -43.03644647 24.3667426 -42 18 C-43.65 18 -45.3 18 -47 18 C-46.34 17.67 -45.68 17.34 -45 17 C-45 16.01 -45 15.02 -45 14 C-45.99 13.67 -46.98 13.34 -48 13 C-45.9375 11.375 -45.9375 11.375 -43 10 C-40.64848923 10.59940471 -38.31691454 11.27833809 -36 12 C-31.42977236 12.33369916 -27.07087009 12.19470365 -22.5625 11.375 C-20 11 -20 11 -17 13 C-12.22471841 13.34875652 -8.79815807 12.58640185 -4.9375 9.75 C-2.78380697 6.69314538 -2.80536566 5.60073521 -3 2 C-2.01 1.34 -1.02 0.68 0 0 Z M-34 37 C-34.33 37.33 -34.66 37.66 -35 38 C-34.96190945 40.12721057 -34.84440703 42.25324227 -34.6875 44.375 C-34.60886719 45.53773437 -34.53023437 46.70046875 -34.44921875 47.8984375 C-34.20359451 51.16012247 -34.20359451 51.16012247 -32 54 C-30.43164301 48.98125763 -29.35657999 44.2595548 -29 39 C-29.66 38.34 -30.32 37.68 -31 37 C-31.99 37 -32.98 37 -34 37 Z " fill="#E2EFF8" transform="translate(137,58)"/>
<path d="M0 0 C0.804375 0.804375 1.60875 1.60875 2.4375 2.4375 C2.4375 3.0975 2.4375 3.7575 2.4375 4.4375 C3.015 4.64375 3.5925 4.85 4.1875 5.0625 C7.90798855 7.33613189 9.90850772 10.50029083 11.04003906 14.64404297 C11.49784607 17.11167307 11.86208507 19.5740329 12.1875 22.0625 C12.31253906 22.908125 12.43757813 23.75375 12.56640625 24.625 C13.09381685 28.299487 13.4375 31.71077475 13.4375 35.4375 C11.1413775 37.9102473 9.73795301 38.40070984 6.375 38.8125 C3.4375 38.4375 3.4375 38.4375 1.5625 36.9375 C1.19125 36.4425 0.82 35.9475 0.4375 35.4375 C2.07345506 29.77457865 2.07345506 29.77457865 4.125 27.875 C4.558125 27.400625 4.99125 26.92625 5.4375 26.4375 C4.29695379 18.32694915 1.89841579 10.70508381 -4.68359375 5.55859375 C-11.06459221 1.75122045 -17.2951924 1.72656773 -24.5625 2.4375 C-30.85187351 4.26695613 -34.34396749 7.73994581 -37.6875 13.3125 C-39.74730122 18.31487439 -41.03155357 22.15532923 -39.5625 27.4375 C-38.32169355 29.85193549 -36.9339649 32.13081045 -35.5234375 34.44921875 C-35.20632812 35.10535156 -34.88921875 35.76148438 -34.5625 36.4375 C-34.8925 37.0975 -35.2225 37.7575 -35.5625 38.4375 C-41.79537671 38.91695205 -41.79537671 38.91695205 -45.0625 36.875 C-47.16287792 33.46188588 -46.35517069 31.25673152 -45.5625 27.4375 C-45.8925 27.1075 -46.2225 26.7775 -46.5625 26.4375 C-46.6875 23.4375 -46.6875 23.4375 -46.5625 20.4375 C-46.2325 20.1075 -45.9025 19.7775 -45.5625 19.4375 C-45.3371669 17.4095021 -45.11482815 15.38075126 -44.94140625 13.34765625 C-44.5625 11.4375 -44.5625 11.4375 -42.5625 9.4375 C-42.294375 8.32375 -42.02625 7.21 -41.75 6.0625 C-40.36783505 1.84325963 -39.20810979 0.84028827 -35.5625 -1.5625 C-34.675625 -2.284375 -33.78875 -3.00625 -32.875 -3.75 C-23.13800947 -9.07778727 -8.59096046 -6.86871603 0 0 Z " fill="#1E1C1D" transform="translate(55.5625,27.5625)"/>
<path d="M0 0 C6.27 0 12.54 0 19 0 C21.08401084 5.2100271 21.08401084 5.2100271 20 10 C19.8890115 13.06313655 19.95108854 16.1231971 20 19.1875 C20.13443936 27.73112128 20.13443936 27.73112128 19 30 C15.625 30.125 15.625 30.125 12 30 C11.34 29.34 10.68 28.68 10 28 C10.08920788 24.34247689 10.38201273 20.76060088 10.72265625 17.12109375 C10.88678161 15.08524083 10.95019876 13.04185065 11 11 C10.34 10.34 9.68 9.68 9 9 C8.01 9.33 7.02 9.66 6 10 C6.26876953 11.78857422 6.26876953 11.78857422 6.54296875 13.61328125 C6.75868483 15.17956761 6.97348081 16.74598088 7.1875 18.3125 C7.30802734 19.09818359 7.42855469 19.88386719 7.55273438 20.69335938 C7.65263672 21.45068359 7.75253906 22.20800781 7.85546875 22.98828125 C7.95496826 23.68477783 8.05446777 24.38127441 8.15698242 25.09887695 C8 27 8 27 6.7355957 28.76635742 C5 30 5 30 1.375 29.75 C-2 29 -2 29 -3 28 C-2.90997602 25.97591245 -2.75358962 23.95455713 -2.5625 21.9375 C-2.46066406 20.83277344 -2.35882812 19.72804688 -2.25390625 18.58984375 C-2.17011719 17.73519531 -2.08632813 16.88054687 -2 16 C-1.34 16 -0.68 16 0 16 C-0.165 14.906875 -0.33 13.81375 -0.5 12.6875 C-1.32 6.64 -1.32 6.64 0 4 C0 2.68 0 1.36 0 0 Z " fill="#B66FA7" transform="translate(29,86)"/>
<path d="M0 0 C3.31248187 -0.02888146 6.62493167 -0.04675799 9.9375 -0.0625 C10.88302734 -0.07087891 11.82855469 -0.07925781 12.80273438 -0.08789062 C14.15141602 -0.09272461 14.15141602 -0.09272461 15.52734375 -0.09765625 C16.77632446 -0.10551147 16.77632446 -0.10551147 18.05053711 -0.11352539 C20 0 20 0 21 1 C21.125 4.5 21.125 4.5 21 8 C20.67 8.33 20.34 8.66 20 9 C19.83236797 13.02316877 20.08902652 16.70863783 20.6875 20.6875 C21.08932461 23.86951652 21.18375663 24.67243383 19.5625 27.5625 C19.046875 28.036875 18.53125 28.51125 18 29 C12.31034483 28.09482759 12.31034483 28.09482759 9.75 27.3125 C9.1725 27.209375 8.595 27.10625 8 27 C7.34 27.66 6.68 28.32 6 29 C3.5 29.25 3.5 29.25 1 29 C-1 27 -1 27 -1.23046875 24.64453125 C-1.14991255 19.33514524 -0.93006067 14.23159127 0 9 C-0.66 9 -1.32 9 -2 9 C-1.125 2.25 -1.125 2.25 0 0 Z M8 8 C7.67 8.33 7.34 8.66 7 9 C7.03809055 11.12721057 7.15559297 13.25324227 7.3125 15.375 C7.39113281 16.53773437 7.46976563 17.70046875 7.55078125 18.8984375 C7.79640549 22.16012247 7.79640549 22.16012247 10 25 C11.56835699 19.98125763 12.64342001 15.2595548 13 10 C12.34 9.34 11.68 8.68 11 8 C10.01 8 9.02 8 8 8 Z " fill="#3088AB" transform="translate(95,87)"/>
<path d="M0 0 C3.33457067 0.15157139 6.17913534 -0.16823537 9.4375 -0.84375 C9.6875 1.40625 9.6875 1.40625 9.4375 4.15625 C7.5625 6.46875 7.5625 6.46875 5.4375 8.15625 C4.7775 8.15625 4.1175 8.15625 3.4375 8.15625 C2.695 8.61 1.9525 9.06375 1.1875 9.53125 C-4.27055929 12.75646685 -9.18278655 13.43882999 -15.4375 13.28125 C-16.12585938 13.27222656 -16.81421875 13.26320313 -17.5234375 13.25390625 C-19.20327838 13.23057513 -20.88293746 13.19471326 -22.5625 13.15625 C-21.5725 12.16625 -20.5825 11.17625 -19.5625 10.15625 C-22.5325 9.66125 -22.5325 9.66125 -25.5625 9.15625 C-25.830625 10.249375 -26.09875 11.3425 -26.375 12.46875 C-27.92755032 17.28982731 -27.92755032 17.28982731 -30.5625 19.15625 C-31.2225 19.15625 -31.8825 19.15625 -32.5625 19.15625 C-31.65648175 12.94934884 -30.63322395 9.26112177 -25.5625 5.15625 C-24.5725 4.3209375 -24.5725 4.3209375 -23.5625 3.46875 C-16.09362499 -1.43269923 -8.53966441 -0.82400271 0 0 Z " fill="#B2691E" transform="translate(113.5625,27.84375)"/>
<path d="M0 0 C2.77867692 2.77867692 2.65193902 5.1713292 3 9 C2.67 9.33 2.34 9.66 2 10 C1.93963483 13.82941546 1.98011227 17.64579213 2.0390625 21.47460938 C2.04679687 22.27576172 2.05453125 23.07691406 2.0625 23.90234375 C2.07410156 24.63960693 2.08570313 25.37687012 2.09765625 26.13647461 C2 28 2 28 1 30 C-2.375 30.125 -2.375 30.125 -6 30 C-8 28 -8 28 -8.01171875 24.04296875 C-7.91443505 22.42379483 -7.80587333 20.80526885 -7.6875 19.1875 C-7.63916016 18.37990234 -7.59082031 17.57230469 -7.54101562 16.74023438 C-6.78848476 5.10934596 -6.78848476 5.10934596 -4 1 C-2 0.125 -2 0.125 0 0 Z " fill="#C78FB1" transform="translate(47,86)"/>
<path d="M0 0 C3.33457067 0.15157139 6.17913534 -0.16823537 9.4375 -0.84375 C9.4375 0.47625 9.4375 1.79625 9.4375 3.15625 C8.7775 2.82625 8.1175 2.49625 7.4375 2.15625 C7.1075 2.48625 6.7775 2.81625 6.4375 3.15625 C5.4475 3.48625 4.4575 3.81625 3.4375 4.15625 C2.7775 3.82625 2.1175 3.49625 1.4375 3.15625 C1.4375 3.81625 1.4375 4.47625 1.4375 5.15625 C-0.875 6.84375 -0.875 6.84375 -3.5625 8.15625 C-4.5525 7.82625 -5.5425 7.49625 -6.5625 7.15625 C-5.2425 6.82625 -3.9225 6.49625 -2.5625 6.15625 C-2.5625 5.16625 -2.5625 4.17625 -2.5625 3.15625 C-7.1825 3.48625 -11.8025 3.81625 -16.5625 4.15625 C-17.90763424 8.01563975 -17.90763424 8.01563975 -16.5625 11.15625 C-17.2225 11.15625 -17.8825 11.15625 -18.5625 11.15625 C-18.5625 10.49625 -18.5625 9.83625 -18.5625 9.15625 C-20.8725 9.15625 -23.1825 9.15625 -25.5625 9.15625 C-25.830625 10.249375 -26.09875 11.3425 -26.375 12.46875 C-27.92755032 17.28982731 -27.92755032 17.28982731 -30.5625 19.15625 C-31.2225 19.15625 -31.8825 19.15625 -32.5625 19.15625 C-31.65648175 12.94934884 -30.63322395 9.26112177 -25.5625 5.15625 C-24.5725 4.3209375 -24.5725 4.3209375 -23.5625 3.46875 C-16.09362499 -1.43269923 -8.53966441 -0.82400271 0 0 Z " fill="#CB9B65" transform="translate(113.5625,27.84375)"/>
<path d="M0 0 C4.53512325 2.68071904 8.20833648 6.72917296 10.5625 11.4375 C10.602492 13.43710012 10.60596799 15.43797242 10.5625 17.4375 C6.755586 12.8692032 6.755586 12.8692032 5.66796875 10.4375 C3.49332918 6.50316976 -0.32745606 4.90620214 -4.4375 3.4375 C-12.54448727 2.28077133 -18.49406032 3.19428686 -25.4375 7.4375 C-26.4275 7.7675 -27.4175 8.0975 -28.4375 8.4375 C-28.4375 9.4275 -28.4375 10.4175 -28.4375 11.4375 C-29.0975 11.4375 -29.7575 11.4375 -30.4375 11.4375 C-30.7675 12.0975 -31.0975 12.7575 -31.4375 13.4375 C-31.01579582 8.65818591 -28.89889809 5.60394186 -25.4375 2.4375 C-18.37081596 -2.99198537 -8.08204289 -3.58340097 0 0 Z " fill="#BB79AB" transform="translate(48.4375,30.5625)"/>
<path d="M0 0 C0 0.99 0 1.98 0 3 C-0.66 3 -1.32 3 -2 3 C-2 3.66 -2 4.32 -2 5 C-5.96 6.98 -9.92 8.96 -14 11 C-13.979375 12.299375 -13.95875 13.59875 -13.9375 14.9375 C-13.91600546 16.29165633 -13.92851801 17.64756083 -14 19 C-15 20 -15 20 -18.5625 20.0625 C-19.696875 20.041875 -20.83125 20.02125 -22 20 C-23.87729813 16.8320594 -24.09587672 14.64331523 -24 11 C-24.33 10.34 -24.66 9.68 -25 9 C-22.525 9.495 -22.525 9.495 -20 10 C-20.33 9.01 -20.66 8.02 -21 7 C-19.93265625 6.84724609 -19.93265625 6.84724609 -18.84375 6.69140625 C-14.6715634 5.67701473 -11.3812305 3.4635154 -7.71875 1.27734375 C-4.86262201 -0.06454397 -3.10971795 -0.26477671 0 0 Z " fill="#F8E2C9" transform="translate(92,72)"/>
<path d="M0 0 C2.97 0 5.94 0 9 0 C8.979375 1.134375 8.95875 2.26875 8.9375 3.4375 C8.91488423 6.62066963 9.20773707 9.60546688 9.6875 12.75 C10.09209913 15.91571484 10.17846483 16.68186704 8.5625 19.5625 C8.046875 20.036875 7.53125 20.51125 7 21 C4.125 20.8125 4.125 20.8125 1 20 C-1.41583288 15.89082632 -0.9419228 12.87613191 -0.0625 8.3125 C1.01228977 4.02838414 1.01228977 4.02838414 0 0 Z " fill="#79797A" transform="translate(106,95)"/>
<path d="M0 0 C2.31 0 4.62 0 7 0 C7.99 5.94 8.98 11.88 10 18 C6.26258387 19.86870807 4.96172649 20.41702384 1 20 C-1 18 -1 18 -1.23046875 15.64453125 C-1.14991255 10.33514524 -0.93006067 5.23159127 0 0 Z " fill="#F4E5D4" transform="translate(95,96)"/>
<path d="M0 0 C1.32 0.66 2.64 1.32 4 2 C3.47326428 7.61851435 0.61705841 12.6628757 -3.5703125 16.40234375 C-8.20474383 19.43089073 -12.59957519 19.44085101 -18 19 C-18.33 17.35 -18.66 15.7 -19 14 C-18.26394531 13.91363281 -17.52789062 13.82726562 -16.76953125 13.73828125 C-12.02078899 13.05451255 -8.75032716 12.544355 -4.8125 9.6875 C-2.79233136 6.69207754 -2.81102942 5.49595566 -3 2 C-2.01 1.34 -1.02 0.68 0 0 Z " fill="#FAEBDA" transform="translate(137,58)"/>
<path d="M0 0 C1.65 0 3.3 0 5 0 C6.26728083 2.2811055 6.99360771 3.94758325 7.3125 6.5625 C7.80488097 9.13587009 7.80488097 9.13587009 9.9375 10.75 C14.21676324 12.49663806 18.41511431 12.74182197 23 13 C23.33 14.32 23.66 15.64 24 17 C10.55540955 17.39159001 10.55540955 17.39159001 6 15 C3.8125 12.6875 3.8125 12.6875 2 10 C1.401875 9.175 0.80375 8.35 0.1875 7.5 C-1.23611297 4.50292007 -0.97780502 3.11119779 0 0 Z " fill="#C6A288" transform="translate(1,59)"/>
<path d="M0 0 C3.33333333 1.66666667 6.66666667 3.33333333 10 5 C8.68 5.33 7.36 5.66 6 6 C6 6.99 6 7.98 6 9 C6.99 9 7.98 9 9 9 C8.835 9.94875 8.67 10.8975 8.5 11.875 C7.90617321 15.86096064 8.00414246 19.74670972 8.16015625 23.765625 C8 26 8 26 6 29 C6.33 29.33 6.66 29.66 7 30 C7.04092937 32.33297433 7.04241723 34.66705225 7 37 C6.67 37 6.34 37 6 37 C3.63958656 28.95643728 3.14181872 19.71636257 7 12 C6.195625 12.165 5.39125 12.33 4.5625 12.5 C-1.56424053 13.35989341 -7.3467447 13.91780919 -13 11 C-9.45049966 9.83693557 -6.44176052 10.07634951 -2.75 10.4375 C-1.13351563 10.59025391 -1.13351563 10.59025391 0.515625 10.74609375 C1.33546875 10.82988281 2.1553125 10.91367188 3 11 C2.2236068 7.9254644 2.2236068 7.9254644 0 6 C0.66 5.01 1.32 4.02 2 3 C1.34 2.01 0.68 1.02 0 0 Z " fill="#E3DCC7" transform="translate(22,65)"/>
<path d="M0 0 C7.875 0.875 7.875 0.875 9 2 C9.421875 3.9609375 9.421875 3.9609375 9.75 6.375 C9.86859375 7.16648437 9.9871875 7.95796875 10.109375 8.7734375 C10 11 10 11 8.7421875 12.8046875 C7 14 7 14 3.375 13.75 C0 13 0 13 -1 12 C-0.90997602 9.97591245 -0.75358962 7.95455713 -0.5625 5.9375 C-0.46066406 4.83277344 -0.35882812 3.72804688 -0.25390625 2.58984375 C-0.17011719 1.73519531 -0.08632813 0.88054687 0 0 Z " fill="#DFC8E0" transform="translate(27,102)"/>
<path d="M0 0 C7.875 0.875 7.875 0.875 9 2 C9.09823996 3.47648876 9.12973519 4.95775417 9.125 6.4375 C9.12757812 7.24058594 9.13015625 8.04367188 9.1328125 8.87109375 C9 11 9 11 8 13 C4.625 13.125 4.625 13.125 1 13 C0.34 12.34 -0.32 11.68 -1 11 C-0.9765625 8.3984375 -0.9765625 8.3984375 -0.625 5.375 C-0.51414063 4.37210937 -0.40328125 3.36921875 -0.2890625 2.3359375 C-0.19367187 1.56507812 -0.09828125 0.79421875 0 0 Z " fill="#D7BDD7" transform="translate(40,103)"/>
<path d="M0 0 C0.33 0.66 0.66 1.32 1 2 C1.66 2 2.32 2 3 2 C3 2.66 3 3.32 3 4 C3.66 4.33 4.32 4.66 5 5 C4.34 5 3.68 5 3 5 C3.33 6.98 3.66 8.96 4 11 C3.01 11.495 3.01 11.495 2 12 C2.77085938 12.03738281 3.54171875 12.07476562 4.3359375 12.11328125 C5.33882812 12.17902344 6.34171875 12.24476562 7.375 12.3125 C8.87160156 12.39951172 8.87160156 12.39951172 10.3984375 12.48828125 C11.25695313 12.65714844 12.11546875 12.82601562 13 13 C13.99 14.485 13.99 14.485 15 16 C9.06 16 3.12 16 -3 16 C-1.875 7 -1.875 7 -1 4 C-1.99 4 -2.98 4 -4 4 C-4 3.01 -4 2.02 -4 1 C-2.68 0.67 -1.36 0.34 0 0 Z " fill="#D3E0B9" transform="translate(32,70)"/>
<path d="M0 0 C6.63345834 1.15822288 12.57246109 2.84615415 18 7 C19.25390625 9.1640625 19.25390625 9.1640625 20 11 C15.33795772 11 12.11732398 9.80611382 7.8125 8.1875 C7.07580078 7.92646484 6.33910156 7.66542969 5.58007812 7.39648438 C3.68315761 6.68972006 1.83598069 5.85264188 0 5 C-0.33 4.01 -0.66 3.02 -1 2 C-0.67 1.34 -0.34 0.68 0 0 Z " fill="#CFAC93" transform="translate(53,71)"/>
<path d="M0 0 C0.33 0.66 0.66 1.32 1 2 C2.093125 1.979375 3.18625 1.95875 4.3125 1.9375 C8 2 8 2 11 3 C11 4.65 11 6.3 11 8 C7.98509443 9.00496852 5.95818308 9.10335303 2.8125 9.0625 C1.46091797 9.04896484 1.46091797 9.04896484 0.08203125 9.03515625 C-0.60503906 9.02355469 -1.29210937 9.01195313 -2 9 C-1.125 2.25 -1.125 2.25 0 0 Z " fill="#328CAD" transform="translate(95,87)"/>
<path d="M0 0 C2.31 0 4.62 0 7 0 C5.515 1.98 5.515 1.98 4 4 C9.94 4.99 9.94 4.99 16 6 C16 6.33 16 6.66 16 7 C14.35 7.33 12.7 7.66 11 8 C11.50603992 10.16874252 11.99983813 11.99967627 13 14 C10.36 13.67 7.72 13.34 5 13 C5.33 12.34 5.66 11.68 6 11 C6.99 11 7.98 11 9 11 C9 10.34 9 9.68 9 9 C8.4225 9.20625 7.845 9.4125 7.25 9.625 C5 10 5 10 2.875 9.4375 C0.17698824 7.36902431 -0.25535686 5.24935188 -1 2 C-0.67 1.34 -0.34 0.68 0 0 Z " fill="#E8C7A3" transform="translate(88,37)"/>
<path d="M0 0 C2.97 0 5.94 0 9 0 C9 3.63 9 7.26 9 11 C8.34 10.67 7.68 10.34 7 10 C6.67 10.33 6.34 10.66 6 11 C5.01 11.33 4.02 11.66 3 12 C0.557123 8.3356845 0.92155524 6.31446191 1 2 C0.67 1.34 0.34 0.68 0 0 Z " fill="#D8E9EE" transform="translate(106,95)"/>
<path d="M0 0 C0 1.32 0 2.64 0 4 C-0.66 3.67 -1.32 3.34 -2 3 C-2.33 3.33 -2.66 3.66 -3 4 C-3.99 4.33 -4.98 4.66 -6 5 C-6.66 4.67 -7.32 4.34 -8 4 C-8 4.66 -8 5.32 -8 6 C-10.3125 7.6875 -10.3125 7.6875 -13 9 C-13.99 8.67 -14.98 8.34 -16 8 C-14.68 7.67 -13.36 7.34 -12 7 C-12 6.01 -12 5.02 -12 4 C-16.62 4 -21.24 4 -26 4 C-23.66705383 1.66705383 -23.16886609 1.73137956 -20.0078125 1.62109375 C-18.82638672 1.56985352 -18.82638672 1.56985352 -17.62109375 1.51757812 C-16.38552734 1.47793945 -16.38552734 1.47793945 -15.125 1.4375 C-13.50246786 1.37726381 -11.88005938 1.3135771 -10.2578125 1.24609375 C-9.5373877 1.22216553 -8.81696289 1.1982373 -8.07470703 1.17358398 C-5.30394094 0.941763 -2.77781134 0 0 0 Z " fill="#B66E24" transform="translate(123,27)"/>
<path d="M0 0 C2.31 0 4.62 0 7 0 C7 2.31 7 4.62 7 7 C5.02 7 3.04 7 1 7 C1 7.66 1 8.32 1 9 C4.19902639 9.08886184 6.92677456 8.91058531 10 8 C9 10 9 10 6 12 C3.4375 12.25 3.4375 12.25 1 12 C-1 10 -1 10 -1.1875 6.5625 C-1 3 -1 3 0 0 Z " fill="#757575" transform="translate(95,104)"/>
<path d="M0 0 C1.65 0 3.3 0 5 0 C6.23514929 2.22326872 7.01002294 4.05136756 7.5 6.5625 C7.89071327 9.24360926 7.89071327 9.24360926 10 12 C7.525 11.01 7.525 11.01 5 10 C4.67 10.99 4.34 11.98 4 13 C-1.05908096 5.9452954 -1.05908096 5.9452954 -0.8125 2 C-0.544375 1.34 -0.27625 0.68 0 0 Z " fill="#DCC5B4" transform="translate(1,59)"/>
<path d="M0 0 C0 0.99 0 1.98 0 3 C-0.66 3 -1.32 3 -2 3 C-2 3.66 -2 4.32 -2 5 C-3.4562545 5.67119549 -4.91507867 6.33681807 -6.375 7 C-7.59316406 7.556875 -7.59316406 7.556875 -8.8359375 8.125 C-11 9 -11 9 -13 9 C-13 8.34 -13 7.68 -13 7 C-13.99 6.67 -14.98 6.34 -16 6 C-14.27843904 4.98696238 -12.54738194 3.99005152 -10.8125 3 C-9.84957031 2.443125 -8.88664062 1.88625 -7.89453125 1.3125 C-4.95111257 -0.02216758 -3.18119943 -0.27915461 0 0 Z " fill="#FAE7D1" transform="translate(92,72)"/>
<path d="M0 0 C0.33 1.32 0.66 2.64 1 4 C-4.01989102 8.11888494 -7.59858988 8.51211281 -14 8 C-14.33 7.01 -14.66 6.02 -15 5 C-14.16855469 4.80664062 -13.33710937 4.61328125 -12.48046875 4.4140625 C-11.39378906 4.15367188 -10.30710937 3.89328125 -9.1875 3.625 C-8.10855469 3.36976562 -7.02960938 3.11453125 -5.91796875 2.8515625 C-2.84466657 2.11267119 -2.84466657 2.11267119 0 0 Z " fill="#FBE2C7" transform="translate(133,69)"/>
<path d="M0 0 C7.875 0.875 7.875 0.875 9 2 C9.04063832 3.66617115 9.042721 5.33388095 9 7 C2.84765625 7.87890625 2.84765625 7.87890625 1 8 C0 7 0 7 -0.0625 3.4375 C-0.041875 2.303125 -0.02125 1.16875 0 0 Z " fill="#F3EDED" transform="translate(27,102)"/>
<path d="M0 0 C2.64 0.33 5.28 0.66 8 1 C8.33 2.65 8.66 4.3 9 6 C5.7 6.66 2.4 7.32 -1 8 C-0.67 5.36 -0.34 2.72 0 0 Z " fill="#F6F2F6" transform="translate(40,103)"/>
<path d="M0 0 C2.31 0.66 4.62 1.32 7 2 C7.33 4.64 7.66 7.28 8 10 C3.61740632 8.66087415 1.45906075 6.87774964 -1 3 C-0.67 2.01 -0.34 1.02 0 0 Z " fill="#B5722B" transform="translate(121,36)"/>
<path d="M0 0 C2.97 0 5.94 0 9 0 C9.33 2.97 9.66 5.94 10 9 C6.77208445 11.1519437 5.71599191 11.20086443 2 11 C2 9.68 2 8.36 2 7 C3.65 7 5.3 7 7 7 C7 5.35 7 3.7 7 2 C4.03 1.505 4.03 1.505 1 1 C0.67 1.99 0.34 2.98 0 4 C0 2.68 0 1.36 0 0 Z " fill="#CBCED0" transform="translate(94,103)"/>
<path d="M0 0 C-3.95702276 4.29619614 -6.86020672 6.86045363 -12.8125 7.125 C-13.534375 7.08375 -14.25625 7.0425 -15 7 C-10.34876969 1.95009281 -6.95985625 -0.39770607 0 0 Z " fill="#0A0406" transform="translate(36,33)"/>
<path d="M0 0 C6.05303839 0.3783149 10.18382123 2.29717165 15 6 C15 6.33 15 6.66 15 7 C8.30371627 6.83631306 4.72342515 5.84453861 0 1 C0 0.67 0 0.34 0 0 Z " fill="#12090B" transform="translate(39,33)"/>
<path d="M0 0 C3.33333333 1.66666667 6.66666667 3.33333333 10 5 C8.68 5.33 7.36 5.66 6 6 C6.33 7.32 6.66 8.64 7 10 C5.68 10.33 4.36 10.66 3 11 C2.67 10.01 2.34 9.02 2 8 C1.34 7.34 0.68 6.68 0 6 C0.66 5.01 1.32 4.02 2 3 C1.34 2.01 0.68 1.02 0 0 Z " fill="#E0E7C4" transform="translate(22,65)"/>
<path d="M0 0 C1.32 0.66 2.64 1.32 4 2 C3.43454163 5.95820859 2.19097652 8.6659053 0 12 C-0.66 11.67 -1.32 11.34 -2 11 C-1.85957123 9.35369672 -1.71250671 7.70795821 -1.5625 6.0625 C-1.48128906 5.14597656 -1.40007812 4.22945312 -1.31640625 3.28515625 C-1 1 -1 1 0 0 Z " fill="#FBE6CF" transform="translate(137,58)"/>
<path d="M0 0 C0.66 0.33 1.32 0.66 2 1 C1.67 1.66 1.34 2.32 1 3 C0.87625 4.134375 0.7525 5.26875 0.625 6.4375 C0 10 0 10 -1.4375 11.9375 C-3 13 -3 13 -5 13 C-3.25740319 3.40546697 -3.25740319 3.40546697 0 0 Z " fill="#BE8644" transform="translate(86,34)"/>
<path d="M0 0 C3.93673644 1.31224548 6.22719294 2.91910327 9 6 C8.67 6.66 8.34 7.32 8 8 C6.53932801 7.54917531 5.08151968 7.08906463 3.625 6.625 C2.81289062 6.36976562 2.00078125 6.11453125 1.1640625 5.8515625 C-1 5 -1 5 -3 3 C-1.68 2.67 -0.36 2.34 1 2 C0.67 1.34 0.34 0.68 0 0 Z " fill="#CAAA91" transform="translate(64,75)"/>
<path d="M0 0 C1.32 0 2.64 0 4 0 C4 2.31 4 4.62 4 7 C4.66 7.33 5.32 7.66 6 8 C3.69 8 1.38 8 -1 8 C-0.67 5.36 -0.34 2.72 0 0 Z " fill="#B88164" transform="translate(29,95)"/>
<path d="M0 0 C0.99 0.33 1.98 0.66 3 1 C3.04254356 2.99954746 3.04080783 5.00041636 3 7 C2 8 2 8 -1.5625 8.0625 C-2.696875 8.041875 -3.83125 8.02125 -5 8 C-5 7.01 -5 6.02 -5 5 C-3.68 5 -2.36 5 -1 5 C-0.67 3.35 -0.34 1.7 0 0 Z " fill="#CEAA92" transform="translate(75,84)"/>
<path d="M0 0 C1.32 0 2.64 0 4 0 C4 2.31 4 4.62 4 7 C2.02 7 0.04 7 -2 7 C-1.34 4.69 -0.68 2.38 0 0 Z " fill="#B68363" transform="translate(43,96)"/>
<path d="M0 0 C1.32 0 2.64 0 4 0 C3.67 1.32 3.34 2.64 3 4 C1.68 4.33 0.36 4.66 -1 5 C-1 6.98 -1 8.96 -1 11 C-1.66 11 -2.32 11 -3 11 C-3 8.69 -3 6.38 -3 4 C-2.34 3.67 -1.68 3.34 -1 3 C-0.67 2.01 -0.34 1.02 0 0 Z " fill="#CEAAB5" transform="translate(36,91)"/>
<path d="M0 0 C0.66 0.33 1.32 0.66 2 1 C2 1.99 2 2.98 2 4 C0.06318839 4.08107583 -1.8745934 4.13922475 -3.8125 4.1875 C-4.89144531 4.22230469 -5.97039063 4.25710937 -7.08203125 4.29296875 C-10 4 -10 4 -13 1 C-8.71 1.33 -4.42 1.66 0 2 C0 1.34 0 0.68 0 0 Z " fill="#B8825C" transform="translate(23,72)"/>
<path d="M0 0 C0 0.66 0 1.32 0 2 C0.66 2 1.32 2 2 2 C2 2.99 2 3.98 2 5 C-0.97 5 -3.94 5 -7 5 C-6.67 3.68 -6.34 2.36 -6 1 C-6 1.99 -6 2.98 -6 4 C-5.34 4 -4.68 4 -4 4 C-4 3.01 -4 2.02 -4 1 C-2 0 -2 0 0 0 Z " fill="#036C95" transform="translate(113,90)"/>
<path d="M0 0 C1.32 0 2.64 0 4 0 C4.80967438 2.91482778 5.21845993 4.46113217 4.0625 7.3125 C3.5365625 8.1478125 3.5365625 8.1478125 3 9 C2.71125 8.360625 2.4225 7.72125 2.125 7.0625 C1.17176549 4.84793921 1.17176549 4.84793921 -1 4 C-0.67 2.68 -0.34 1.36 0 0 Z " fill="#BD9377" transform="translate(1,59)"/>
<path d="M0 0 C0.66 0 1.32 0 2 0 C2.66 0.99 3.32 1.98 4 3 C6.95769177 3.50010524 6.95769177 3.50010524 10 3 C11.87890434 1.62493901 11.87890434 1.62493901 13 0 C12.6875 1.875 12.6875 1.875 12 4 C8.1496895 6.56687367 6.41430237 5.83288724 2 5 C1.34 3.35 0.68 1.7 0 0 Z " fill="#2C1810" transform="translate(31,57)"/>
<path d="M0 0 C1.65 0.33 3.3 0.66 5 1 C4.67 2.32 4.34 3.64 4 5 C2.35 4.67 0.7 4.34 -1 4 C-0.67 2.68 -0.34 1.36 0 0 Z " fill="#B56C53" transform="translate(24,53)"/>
<path d="M0 0 C1.67542976 0.28604898 3.34385343 0.61781233 5 1 C5 1.99 5 2.98 5 4 C3.35 4.33 1.7 4.66 0 5 C-0.5625 3.0625 -0.5625 3.0625 -1 1 C-0.67 0.67 -0.34 0.34 0 0 Z " fill="#F4B8A4" transform="translate(114,53)"/>
<path d="M0 0 C0.763125 0.20625 1.52625 0.4125 2.3125 0.625 C2.3125 1.615 2.3125 2.605 2.3125 3.625 C0.0025 3.625 -2.3075 3.625 -4.6875 3.625 C-5.0175 2.965 -5.3475 2.305 -5.6875 1.625 C-2.6875 -0.375 -2.6875 -0.375 0 0 Z " fill="#BF8C6E" transform="translate(46.6875,49.375)"/>
<path d="M0 0 C-1.65 1.65 -3.3 3.3 -5 5 C-5.33 4.34 -5.66 3.68 -6 3 C-8.02463255 2.34786708 -8.02463255 2.34786708 -10 2 C-6.49223216 0.39644899 -3.85645121 -0.22036864 0 0 Z " fill="#211216" transform="translate(36,33)"/>
<path d="M0 0 C0 1.32 0 2.64 0 4 C-0.66 3.67 -1.32 3.34 -2 3 C-2.33 3.33 -2.66 3.66 -3 4 C-7 4 -7 4 -10 2 C-8.7090864 1.66376204 -7.41723903 1.33110751 -6.125 1 C-5.40570313 0.814375 -4.68640625 0.62875 -3.9453125 0.4375 C-2 0 -2 0 0 0 Z " fill="#DBC7A7" transform="translate(123,27)"/>
<path d="M0 0 C1.65 0 3.3 0 5 0 C5 1.32 5 2.64 5 4 C2.03 3.505 2.03 3.505 -1 3 C-0.67 2.01 -0.34 1.02 0 0 Z " fill="#E6E6E6" transform="translate(108,110)"/>
<path d="M0 0 C0.66 1.32 1.32 2.64 2 4 C1.01 5.485 1.01 5.485 0 7 C0.33 7.33 0.66 7.66 1 8 C1.04092937 10.33297433 1.04241723 12.66705225 1 15 C0.67 15 0.34 15 0 15 C-2.27571116 5.98468271 -2.27571116 5.98468271 -1.125 1.875 C-0.75375 1.25625 -0.3825 0.6375 0 0 Z " fill="#D7B0C5" transform="translate(28,87)"/>
<path d="M0 0 C2.97 0.495 2.97 0.495 6 1 C6 1.99 6 2.98 6 4 C3.03 3.67 0.06 3.34 -3 3 C-2.01 2.67 -1.02 2.34 0 2 C0 1.34 0 0.68 0 0 Z " fill="#C37CB7" transform="translate(43,30)"/>
<path d="M0 0 C-0.66 1.32 -1.32 2.64 -2 4 C-3.65 4 -5.3 4 -7 4 C-7.33 3.01 -7.66 2.02 -8 1 C-2.25 0 -2.25 0 0 0 Z " fill="#C3A0B9" transform="translate(36,112)"/>
<path d="M0 0 C0.33 1.32 0.66 2.64 1 4 C-1.31 4 -3.62 4 -6 4 C-6 3.01 -6 2.02 -6 1 C-4.02 0.67 -2.04 0.34 0 0 Z " fill="#DCEFF5" transform="translate(101,99)"/>
<path d="M0 0 C2.0625 0.4375 2.0625 0.4375 4 1 C4 1.99 4 2.98 4 4 C2.68 4.33 1.36 4.66 0 5 C-0.5625 3.0625 -0.5625 3.0625 -1 1 C-0.67 0.67 -0.34 0.34 0 0 Z " fill="#F3B4A3" transform="translate(92,53)"/>
<path d="M0 0 C2.97 0 5.94 0 9 0 C8.67 0.99 8.34 1.98 8 3 C6.0625 3.75 6.0625 3.75 4 4 C3.34 3.67 2.68 3.34 2 3 C2 2.34 2 1.68 2 1 C1.34 0.67 0.68 0.34 0 0 Z " fill="#DEEDC0" transform="translate(33,71)"/>
<path d="M0 0 C1.65 0.33 3.3 0.66 5 1 C5 1.99 5 2.98 5 4 C3.02 4 1.04 4 -1 4 C-0.67 2.68 -0.34 1.36 0 0 Z " fill="#F3DEC8" transform="translate(109,96)"/>
<path d="M0 0 C2.4375 0.8125 2.4375 0.8125 5 2 C5.33 2.99 5.66 3.98 6 5 C3.69 4.67 1.38 4.34 -1 4 C-0.67 2.68 -0.34 1.36 0 0 Z " fill="#B48767" transform="translate(53,71)"/>
<path d="M0 0 C0.33 0.66 0.66 1.32 1 2 C0.67 2.66 0.34 3.32 0 4 C-2.31 4 -4.62 4 -7 4 C-6.67 3.01 -6.34 2.02 -6 1 C-4.02 0.67 -2.04 0.34 0 0 Z " fill="#C3A6BC" transform="translate(48,112)"/>
<path d="M0 0 C2.64 0 5.28 0 8 0 C8 0.99 8 1.98 8 3 C7.34 2.67 6.68 2.34 6 2 C5.67 2.33 5.34 2.66 5 3 C4.01 3.33 3.02 3.66 2 4 C1.34 2.68 0.68 1.36 0 0 Z " fill="#AAB1B6" transform="translate(107,103)"/>
<path d="M0 0 C-0.33 1.32 -0.66 2.64 -1 4 C-2.9375 3.6875 -2.9375 3.6875 -5 3 C-5.33 2.01 -5.66 1.02 -6 0 C-3 -1 -3 -1 0 0 Z " fill="#DEAAC9" transform="translate(107,76)"/>
<path d="M0 0 C1.98 0 3.96 0 6 0 C5.34 1.32 4.68 2.64 4 4 C2.68 3.67 1.36 3.34 0 3 C0 2.01 0 1.02 0 0 Z " fill="#D7AAC1" transform="translate(35,75)"/>
<path d="M0 0 C0.66 0.33 1.32 0.66 2 1 C2 1.66 2 2.32 2 3 C2.66 3 3.32 3 4 3 C4 3.66 4 4.32 4 5 C1.69 5 -0.62 5 -3 5 C-2.01 3.35 -1.02 1.7 0 0 Z " fill="#D1AA7C" transform="translate(122,32)"/>
<path d="M0 0 C0.99 0 1.98 0 3 0 C3.33 0.99 3.66 1.98 4 3 C2.02 3.66 0.04 4.32 -2 5 C-1.125 1.125 -1.125 1.125 0 0 Z " fill="#C67EB7" transform="translate(26,31)"/>
<path d="M0 0 C2.31 0 4.62 0 7 0 C5.02 0.99 5.02 0.99 3 2 C3 2.99 3 3.98 3 5 C2.34 5 1.68 5 1 5 C0.67 3.35 0.34 1.7 0 0 Z " fill="#0379A7" transform="translate(106,89)"/>
<path d="M0 0 C1.65 0 3.3 0 5 0 C4.67 1.32 4.34 2.64 4 4 C2.68 3.67 1.36 3.34 0 3 C0 2.01 0 1.02 0 0 Z " fill="#B4684E" transform="translate(45,54)"/>
<path d="M0 0 C5.57142857 5.14285714 5.57142857 5.14285714 6 9 C5.01 9.495 5.01 9.495 4 10 C3.87625 9.071875 3.87625 9.071875 3.75 8.125 C3.18741541 5.81562433 3.18741541 5.81562433 0.9375 4.75 C0.298125 4.5025 -0.34125 4.255 -1 4 C-0.67 2.68 -0.34 1.36 0 0 Z " fill="#FCF0E3" transform="translate(130,44)"/>
<path d="M0 0 C2.31 0.33 4.62 0.66 7 1 C6.67 1.99 6.34 2.98 6 4 C4.125 3.6875 4.125 3.6875 2 3 C1.34 2.01 0.68 1.02 0 0 Z " fill="#1F1216" transform="translate(39,33)"/>
<path d="M0 0 C2.64 0.33 5.28 0.66 8 1 C8 1.33 8 1.66 8 2 C6.02 2 4.04 2 2 2 C1.67 3.32 1.34 4.64 1 6 C0 5 0 5 -0.0625 2.4375 C-0.041875 1.633125 -0.02125 0.82875 0 0 Z " fill="#D1BBD0" transform="translate(26,109)"/>
<path d="M0 0 C0.625 1.8125 0.625 1.8125 1 4 C0.34 4.99 -0.32 5.98 -1 7 C-0.67 4.69 -0.34 2.38 0 0 Z " fill="#F1EAF0" transform="translate(38,104)"/>
<path d="M0 0 C0.93065133 2.60582371 1.14917407 3.64198224 0.0625 6.25 C-0.4634375 7.11625 -0.4634375 7.11625 -1 8 C-0.67 5.36 -0.34 2.72 0 0 Z " fill="#9DA3A6" transform="translate(105,101)"/>
<path d="M0 0 C2.97 0 5.94 0 9 0 C9 0.33 9 0.66 9 1 C6.03 1 3.06 1 0 1 C0 0.67 0 0.34 0 0 Z " fill="#FEFCE8" transform="translate(119,78)"/>
<path d="M0 0 C2.97 0 5.94 0 9 0 C9 0.33 9 0.66 9 1 C6.03 1 3.06 1 0 1 C0 0.67 0 0.34 0 0 Z " fill="#4E4E4E" transform="translate(27,20)"/>
<path d="M0 0 C0.33 0 0.66 0 1 0 C1 2.64 1 5.28 1 8 C0.67 8 0.34 8 0 8 C0 5.36 0 2.72 0 0 Z " fill="#F3E2F0" transform="translate(50,106)"/>
<path d="M0 0 C2.64 0 5.28 0 8 0 C8 0.33 8 0.66 8 1 C5.36 1 2.72 1 0 1 C0 0.67 0 0.34 0 0 Z " fill="#DCC3B1" transform="translate(14,70)"/>
<path d="M0 0 C0.33 0 0.66 0 1 0 C1 2.64 1 5.28 1 8 C0.67 8 0.34 8 0 8 C0 5.36 0 2.72 0 0 Z " fill="#7A7A7A" transform="translate(69,51)"/>
<path d="M0 0 C2.64 0 5.28 0 8 0 C8 0.33 8 0.66 8 1 C5.36 1 2.72 1 0 1 C0 0.67 0 0.34 0 0 Z " fill="#E1BD98" transform="translate(104,26)"/>
<path d="M0 0 C0.33 0 0.66 0 1 0 C1 2.31 1 4.62 1 7 C0.67 7 0.34 7 0 7 C0 4.69 0 2.38 0 0 Z " fill="#FEFEF8" transform="translate(25,102)"/>
<path d="M0 0 C0.33 0 0.66 0 1 0 C1 2.31 1 4.62 1 7 C0.67 7 0.34 7 0 7 C0 4.69 0 2.38 0 0 Z " fill="#D7BCAA" transform="translate(49,97)"/>
<path d="M0 0 C0.33 0 0.66 0 1 0 C1 2.31 1 4.62 1 7 C0.67 7 0.34 7 0 7 C0 4.69 0 2.38 0 0 Z " fill="#D0AF9D" transform="translate(36,97)"/>
<path d="M0 0 C2.31 0 4.62 0 7 0 C7 0.33 7 0.66 7 1 C4.69 1 2.38 1 0 1 C0 0.67 0 0.34 0 0 Z " fill="#C8A389" transform="translate(70,93)"/>
<path d="M0 0 C0.33 0 0.66 0 1 0 C1 2.31 1 4.62 1 7 C0.67 7 0.34 7 0 7 C0 4.69 0 2.38 0 0 Z " fill="#B3D6DD" transform="translate(92,84)"/>
<path d="M0 0 C2.31 0 4.62 0 7 0 C7 0.33 7 0.66 7 1 C4.69 1 2.38 1 0 1 C0 0.67 0 0.34 0 0 Z " fill="#FBEBDA" transform="translate(15,79)"/>
<path d="M0 0 C1.98 0 3.96 0 6 0 C6 0.33 6 0.66 6 1 C4.02 1 2.04 1 0 1 C0 0.67 0 0.34 0 0 Z " fill="#DDC0D5" transform="translate(41,117)"/>
<path d="M0 0 C0.33 0 0.66 0 1 0 C1 1.98 1 3.96 1 6 C0.67 6 0.34 6 0 6 C0 4.02 0 2.04 0 0 Z " fill="#C49576" transform="translate(39,97)"/>
<path d="M0 0 C0.33 0 0.66 0 1 0 C1 1.98 1 3.96 1 6 C0.67 6 0.34 6 0 6 C0 4.02 0 2.04 0 0 Z " fill="#F4F2EE" transform="translate(115,96)"/>
<path d="M0 0 C0.33 0 0.66 0 1 0 C1 1.98 1 3.96 1 6 C0.67 6 0.34 6 0 6 C0 4.02 0 2.04 0 0 Z " fill="#E1E9EA" transform="translate(103,97)"/>
<path d="M0 0 C0.33 0 0.66 0 1 0 C1 1.98 1 3.96 1 6 C0.67 6 0.34 6 0 6 C0 4.02 0 2.04 0 0 Z " fill="#BF9785" transform="translate(26,96)"/>
<path d="M0 0 C0.33 0 0.66 0 1 0 C1 1.98 1 3.96 1 6 C0.67 6 0.34 6 0 6 C0 4.02 0 2.04 0 0 Z " fill="#EBCDBB" transform="translate(79,85)"/>
<path d="M0 0 C0.33 0 0.66 0 1 0 C1 1.98 1 3.96 1 6 C0.67 6 0.34 6 0 6 C0 4.02 0 2.04 0 0 Z " fill="#DBEFF2" transform="translate(116,82)"/>
<path d="M0 0 C0.99 0.33 1.98 0.66 3 1 C2.34 1 1.68 1 1 1 C0.67 1.99 0.34 2.98 0 4 C0 2.68 0 1.36 0 0 Z " fill="#E3EEF4" transform="translate(115,77)"/>
<path d="M0 0 C1.98 0 3.96 0 6 0 C6 0.33 6 0.66 6 1 C4.02 1 2.04 1 0 1 C0 0.67 0 0.34 0 0 Z " fill="#F8E1CC" transform="translate(120,70)"/>
<path d="M0 0 C1.98 0 3.96 0 6 0 C6 0.33 6 0.66 6 1 C4.02 1 2.04 1 0 1 C0 0.67 0 0.34 0 0 Z " fill="#2C2C2C" transform="translate(59,67)"/>
<path d="M0 0 C1.98 0 3.96 0 6 0 C6 0.33 6 0.66 6 1 C4.02 1 2.04 1 0 1 C0 0.67 0 0.34 0 0 Z " fill="#27292C" transform="translate(14,67)"/>
<path d="M0 0 C0.33 0 0.66 0 1 0 C1 1.98 1 3.96 1 6 C0.67 6 0.34 6 0 6 C0 4.02 0 2.04 0 0 Z " fill="#444444" transform="translate(68,44)"/>
<path d="M0 0 C0.33 0 0.66 0 1 0 C1 1.98 1 3.96 1 6 C0.67 6 0.34 6 0 6 C0 4.02 0 2.04 0 0 Z " fill="#424242" transform="translate(9,39)"/>
<path d="M0 0 C1.65 0 3.3 0 5 0 C5 0.33 5 0.66 5 1 C3.35 1 1.7 1 0 1 C0 0.67 0 0.34 0 0 Z " fill="#E1C2D6" transform="translate(29,117)"/>
<path d="M0 0 C0.33 0 0.66 0 1 0 C1 1.65 1 3.3 1 5 C0.67 5 0.34 5 0 5 C0 3.35 0 1.7 0 0 Z " fill="#78949C" transform="translate(117,90)"/>
<path d="M0 0 C1.65 0 3.3 0 5 0 C5 0.33 5 0.66 5 1 C3.35 1 1.7 1 0 1 C0 0.67 0 0.34 0 0 Z " fill="#E5DDC2" transform="translate(23,78)"/>
<path d="M0 0 C0.33 0 0.66 0 1 0 C1 1.65 1 3.3 1 5 C0.67 5 0.34 5 0 5 C0 3.35 0 1.7 0 0 Z " fill="#696968" transform="translate(12,32)"/>
<path d="M0 0 C0.33 0 0.66 0 1 0 C1 1.65 1 3.3 1 5 C0.67 5 0.34 5 0 5 C0 3.35 0 1.7 0 0 Z " fill="#D6C098" transform="translate(124,28)"/>
<path d="M0 0 C1 4 1 4 1 4 Z " fill="#989698" transform="translate(92,105)"/>
<path d="M0 0 C1 4 1 4 1 4 Z " fill="#DCB1D1" transform="translate(25,88)"/>
<path d="M0 0 C1 4 1 4 1 4 Z " fill="#F8ECD4" transform="translate(67,83)"/>
<path d="M0 0 C1 4 1 4 1 4 Z " fill="#ECF5FD" transform="translate(93,79)"/>
<path d="M0 0 C1 4 1 4 1 4 Z " fill="#EEF8E2" transform="translate(50,79)"/>
<path d="M0 0 C0.66 0 1.32 0 2 0 C2 0.66 2 1.32 2 2 C1.34 2 0.68 2 0 2 C0 1.34 0 0.68 0 0 Z " fill="#F9ECDE" transform="translate(89,68)"/>
<path d="M0 0 C4 1 4 1 4 1 Z " fill="#D4B59B" transform="translate(2,57)"/>
<path d="M0 0 C1 4 1 4 1 4 Z " fill="#FEFADC" transform="translate(74,50)"/>
<path d="M0 0 C4 1 4 1 4 1 Z " fill="#E6D4B4" transform="translate(113,27)"/>
<path d="M0 0 C4 1 4 1 4 1 Z " fill="#F0E1C3" transform="translate(98,26)"/>
<path d="M0 0 C4 1 4 1 4 1 Z " fill="#646464" transform="translate(43,21)"/>
<path d="M0 0 C3 1 3 1 3 1 Z " fill="#686868" transform="translate(109,117)"/>
<path d="M0 0 C3 1 3 1 3 1 Z " fill="#616161" transform="translate(97,117)"/>
<path d="" fill="#B0B1B1" transform="translate(0,0)"/>
<path d="" fill="#E6F4F8" transform="translate(0,0)"/>
<path d="" fill="#93CFE0" transform="translate(0,0)"/>
<path d="" fill="#D29CC9" transform="translate(0,0)"/>
<path d="" fill="#876577" transform="translate(0,0)"/>
<path d="" fill="#E6F1D8" transform="translate(0,0)"/>
<path d="M0 0 C3 1 3 1 3 1 Z " fill="#CBAD98" transform="translate(11,78)"/>
<path d="M0 0 C3 1 3 1 3 1 Z " fill="#AC9481" transform="translate(53,77)"/>
<path d="M0 0 C3 1 3 1 3 1 Z " fill="#F3FAE3" transform="translate(49,77)"/>
<path d="" fill="#FEFCE8" transform="translate(0,0)"/>
<path d="" fill="#FAEED4" transform="translate(0,0)"/>
<path d="" fill="#E6CCA6" transform="translate(0,0)"/>
<path d="" fill="#E2E3E3" transform="translate(0,0)"/>
<path d="" fill="#F0CAEB" transform="translate(0,0)"/>
<path d="" fill="#DCB4D3" transform="translate(0,0)"/>
<path d="" fill="#C1A98F" transform="translate(0,0)"/>
<path d="M0 0 C2 1 2 1 2 1 Z " fill="#FEF6E4" transform="translate(79,82)"/>
<path d="M0 0 C2 1 2 1 2 1 Z " fill="#C9B19D" transform="translate(65,82)"/>
<path d="M0 0 C2 1 2 1 2 1 Z " fill="#FAEDD9" transform="translate(83,80)"/>
<path d="M0 0 C2 1 2 1 2 1 Z " fill="#D6C2AD" transform="translate(61,80)"/>
<path d="M0 0 C2 1 2 1 2 1 Z " fill="#9B7A70" transform="translate(59,79)"/>
<path d="M0 0 C2 1 2 1 2 1 Z " fill="#FEF1DB" transform="translate(88,78)"/>
<path d="M0 0 C2 1 2 1 2 1 Z " fill="#D2B6A3" transform="translate(56,78)"/>
<path d="M0 0 C2 1 2 1 2 1 Z " fill="#F6E4CD" transform="translate(128,77)"/>
<path d="" fill="#DFEDF2" transform="translate(0,0)"/>
<path d="M0 0 C2 1 2 1 2 1 Z " fill="#EEEEE6" transform="translate(91,77)"/>
<path d="M0 0 C2 1 2 1 2 1 Z " fill="#DFD4C2" transform="translate(71,77)"/>
<path d="M0 0 C2 1 2 1 2 1 Z " fill="#987E76" transform="translate(9,77)"/>
<path d="M0 0 C2 1 2 1 2 1 Z " fill="#F2CBA6" transform="translate(76,76)"/>
<path d="M0 0 C2 1 2 1 2 1 Z " fill="#917E78" transform="translate(69,76)"/>
<path d="M0 0 C2 1 2 1 2 1 Z " fill="#E6D9C6" transform="translate(62,72)"/>
<path d="" fill="#F3E2D0" transform="translate(0,0)"/>
<path d="M0 0 C2 1 2 1 2 1 Z " fill="#DFCBB5" transform="translate(60,71)"/>
<path d="M0 0 C2 1 2 1 2 1 Z " fill="#F5DCCB" transform="translate(58,70)"/>
<path d="" fill="#D8C2B0" transform="translate(0,0)"/>
<path d="M0 0 C2 1 2 1 2 1 Z " fill="#FCEAD5" transform="translate(127,69)"/>
<path d="M0 0 C2 1 2 1 2 1 Z " fill="#F7F0E3" transform="translate(118,69)"/>
<path d="M0 0 C2 1 2 1 2 1 Z " fill="#BFA68E" transform="translate(11,69)"/>
<path d="M0 0 C2 1 2 1 2 1 Z " fill="#FBEAD6" transform="translate(129,68)"/>
<path d="M0 0 C2 1 2 1 2 1 Z " fill="#FBEBD2" transform="translate(121,67)"/>
<path d="" fill="#FEEFDE" transform="translate(0,0)"/>
<path d="M0 0 C2 1 2 1 2 1 Z " fill="#696969" transform="translate(57,66)"/>
<path d="" fill="#9C7E7A" transform="translate(0,0)"/>
<path d="M0 0 C2 1 2 1 2 1 Z " fill="#86857F" transform="translate(55,65)"/>
<path d="" fill="#F7E9D3" transform="translate(0,0)"/>
<path d="" fill="#F2DAB8" transform="translate(0,0)"/>
<path d="" fill="#F7E9D6" transform="translate(0,0)"/>
<path d="M0 0 C2 1 2 1 2 1 Z " fill="#FBE9D3" transform="translate(138,57)"/>
<path d="M0 0 C2 1 2 1 2 1 Z " fill="#F4DEC6" transform="translate(135,57)"/>
<path d="" fill="#656565" transform="translate(0,0)"/>
<path d="" fill="#FCF1E0" transform="translate(0,0)"/>
<path d="" fill="#D2B58B" transform="translate(0,0)"/>
<path d="" fill="#F4E7CD" transform="translate(0,0)"/>
<path d="" fill="#3C3C3C" transform="translate(0,0)"/>
<path d="" fill="#565656" transform="translate(0,0)"/>
<path d="" fill="#DAC9B5" transform="translate(0,0)"/>
<path d="M0 0 C2 1 2 1 2 1 Z " fill="#D8C3A6" transform="translate(86,32)"/>
<path d="M0 0 C2 1 2 1 2 1 Z " fill="#DFCCAA" transform="translate(95,27)"/>
<path d="M0 0 C2 1 2 1 2 1 Z " fill="#F2EADD" transform="translate(119,26)"/>
<path d="M0 0 C2 1 2 1 2 1 Z " fill="#333333" transform="translate(48,22)"/>
<path d="M0 0 C2 1 2 1 2 1 Z " fill="#2B2B2B" transform="translate(41,20)"/>
<path d="" fill="#000000" transform="translate(0,0)"/>
<path d="" fill="#383838" transform="translate(0,0)"/>
<path d="" fill="#161616" transform="translate(0,0)"/>
<path d="" fill="#000000" transform="translate(0,0)"/>
<path d="" fill="#C4A9BC" transform="translate(0,0)"/>
<path d="" fill="#BF9FB4" transform="translate(0,0)"/>
<path d="" fill="#181818" transform="translate(0,0)"/>
<path d="" fill="#000000" transform="translate(0,0)"/>
<path d="" fill="#343434" transform="translate(0,0)"/>
<path d="" fill="#D7C1D0" transform="translate(0,0)"/>
<path d="" fill="#000000" transform="translate(0,0)"/>
<path d="" fill="#000000" transform="translate(0,0)"/>
<path d="" fill="#000000" transform="translate(0,0)"/>
<path d="" fill="#B599AC" transform="translate(0,0)"/>
<path d="" fill="#DBC3D4" transform="translate(0,0)"/>
<path d="" fill="#000000" transform="translate(0,0)"/>
<path d="" fill="#000000" transform="translate(0,0)"/>
<path d="" fill="#DDC1D2" transform="translate(0,0)"/>
<path d="" fill="#26636F" transform="translate(0,0)"/>
<path d="" fill="#CCDEDC" transform="translate(0,0)"/>
<path d="" fill="#D4EEF4" transform="translate(0,0)"/>
<path d="" fill="#B0E2EA" transform="translate(0,0)"/>
<path d="" fill="#BA91B1" transform="translate(0,0)"/>
<path d="" fill="#E6B4E0" transform="translate(0,0)"/>
<path d="" fill="#E3BDDA" transform="translate(0,0)"/>
<path d="" fill="#CAAD9C" transform="translate(0,0)"/>
<path d="" fill="#FEEAD8" transform="translate(0,0)"/>
<path d="" fill="#C5A996" transform="translate(0,0)"/>
<path d="" fill="#E4CCBC" transform="translate(0,0)"/>
<path d="" fill="#CEB0A0" transform="translate(0,0)"/>
<path d="" fill="#EBF0E1" transform="translate(0,0)"/>
<path d="" fill="#F5FFE6" transform="translate(0,0)"/>
<path d="" fill="#F7E9D8" transform="translate(0,0)"/>
<path d="" fill="#B79A87" transform="translate(0,0)"/>
<path d="" fill="#FFF9E6" transform="translate(0,0)"/>
<path d="" fill="#FAE8D6" transform="translate(0,0)"/>
<path d="" fill="#FDEBDC" transform="translate(0,0)"/>
<path d="" fill="#756045" transform="translate(0,0)"/>
<path d="" fill="#E7D5C6" transform="translate(0,0)"/>
<path d="" fill="#FDE5CE" transform="translate(0,0)"/>
<path d="" fill="#FEE8D4" transform="translate(0,0)"/>
<path d="" fill="#E4CCBC" transform="translate(0,0)"/>
<path d="" fill="#BF9D84" transform="translate(0,0)"/>
<path d="" fill="#FFF1E2" transform="translate(0,0)"/>
<path d="" fill="#FCE6D2" transform="translate(0,0)"/>
<path d="" fill="#BB9F8D" transform="translate(0,0)"/>
<path d="" fill="#573520" transform="translate(0,0)"/>
<path d="" fill="#FDEFE0" transform="translate(0,0)"/>
<path d="" fill="#FCE6D4" transform="translate(0,0)"/>
<path d="" fill="#C8AE98" transform="translate(0,0)"/>
<path d="" fill="#AB8D76" transform="translate(0,0)"/>
<path d="" fill="#FDEFE0" transform="translate(0,0)"/>
<path d="" fill="#FCE6D6" transform="translate(0,0)"/>
<path d="" fill="#4F2504" transform="translate(0,0)"/>
<path d="" fill="#F6DAC8" transform="translate(0,0)"/>
<path d="" fill="#896958" transform="translate(0,0)"/>
<path d="" fill="#F6EADC" transform="translate(0,0)"/>
<path d="" fill="#FDE9D2" transform="translate(0,0)"/>
<path d="" fill="#EFD9C9" transform="translate(0,0)"/>
<path d="" fill="#F6F2E0" transform="translate(0,0)"/>
<path d="" fill="#FCEFDC" transform="translate(0,0)"/>
<path d="" fill="#F7F5E5" transform="translate(0,0)"/>
<path d="" fill="#F2E8D8" transform="translate(0,0)"/>
<path d="" fill="#E6D5C4" transform="translate(0,0)"/>
<path d="" fill="#FAE8D1" transform="translate(0,0)"/>
<path d="" fill="#FAF1DE" transform="translate(0,0)"/>
<path d="" fill="#FEEEDC" transform="translate(0,0)"/>
<path d="" fill="#F9EDDF" transform="translate(0,0)"/>
<path d="" fill="#D4B4A6" transform="translate(0,0)"/>
<path d="" fill="#F0DFD0" transform="translate(0,0)"/>
<path d="" fill="#B5957E" transform="translate(0,0)"/>
<path d="" fill="#FEEFDC" transform="translate(0,0)"/>
<path d="" fill="#FEEDDA" transform="translate(0,0)"/>
<path d="" fill="#FEECDA" transform="translate(0,0)"/>
<path d="" fill="#828282" transform="translate(0,0)"/>
<path d="" fill="#F7E9DB" transform="translate(0,0)"/>
<path d="" fill="#000000" transform="translate(0,0)"/>
<path d="" fill="#505250" transform="translate(0,0)"/>
<path d="" fill="#E2CFBA" transform="translate(0,0)"/>
<path d="" fill="#FEEDDA" transform="translate(0,0)"/>
<path d="" fill="#FCEAD8" transform="translate(0,0)"/>
<path d="" fill="#626262" transform="translate(0,0)"/>
<path d="" fill="#3C3E3E" transform="translate(0,0)"/>
<path d="" fill="#F6DBD2" transform="translate(0,0)"/>
<path d="" fill="#FAEDD8" transform="translate(0,0)"/>
<path d="" fill="#FAE8D6" transform="translate(0,0)"/>
<path d="" fill="#4A4A4A" transform="translate(0,0)"/>
<path d="" fill="#606262" transform="translate(0,0)"/>
<path d="" fill="#FEFBE8" transform="translate(0,0)"/>
<path d="" fill="#FCEFDA" transform="translate(0,0)"/>
<path d="" fill="#FAE8D6" transform="translate(0,0)"/>
<path d="" fill="#424242" transform="translate(0,0)"/>
<path d="" fill="#1A1A18" transform="translate(0,0)"/>
<path d="" fill="#FCF1DA" transform="translate(0,0)"/>
<path d="" fill="#FCEAD6" transform="translate(0,0)"/>
<path d="" fill="#424242" transform="translate(0,0)"/>
<path d="" fill="#FCF3E0" transform="translate(0,0)"/>
<path d="" fill="#FCEEDE" transform="translate(0,0)"/>
<path d="" fill="#969696" transform="translate(0,0)"/>
<path d="" fill="#F4E1D4" transform="translate(0,0)"/>
<path d="" fill="#FBF4DA" transform="translate(0,0)"/>
<path d="" fill="#D2B9A6" transform="translate(0,0)"/>
<path d="" fill="#F8E7D7" transform="translate(0,0)"/>
<path d="" fill="#FEF1E0" transform="translate(0,0)"/>
<path d="" fill="#F0DDC6" transform="translate(0,0)"/>
<path d="" fill="#FEF1D6" transform="translate(0,0)"/>
<path d="" fill="#FEF8DA" transform="translate(0,0)"/>
<path d="" fill="#FFFBE9" transform="translate(0,0)"/>
<path d="" fill="#F2DDCC" transform="translate(0,0)"/>
<path d="" fill="#FCE6D0" transform="translate(0,0)"/>
<path d="" fill="#F4E2CC" transform="translate(0,0)"/>
<path d="" fill="#FAE6D2" transform="translate(0,0)"/>
<path d="" fill="#FAE6CE" transform="translate(0,0)"/>
<path d="" fill="#5E5E5E" transform="translate(0,0)"/>
<path d="" fill="#343434" transform="translate(0,0)"/>
<path d="" fill="#FCECDE" transform="translate(0,0)"/>
<path d="" fill="#FCECDC" transform="translate(0,0)"/>
<path d="" fill="#FAE8D4" transform="translate(0,0)"/>
<path d="" fill="#4A4A4A" transform="translate(0,0)"/>
<path d="" fill="#868686" transform="translate(0,0)"/>
<path d="" fill="#F0DCBC" transform="translate(0,0)"/>
<path d="" fill="#B17536" transform="translate(0,0)"/>
<path d="" fill="#FEFAE0" transform="translate(0,0)"/>
<path d="" fill="#FCECD6" transform="translate(0,0)"/>
<path d="" fill="#5E5E5E" transform="translate(0,0)"/>
<path d="" fill="#E6CCAA" transform="translate(0,0)"/>
<path d="" fill="#DCC498" transform="translate(0,0)"/>
<path d="" fill="#000000" transform="translate(0,0)"/>
<path d="" fill="#686868" transform="translate(0,0)"/>
<path d="" fill="#FEFEEC" transform="translate(0,0)"/>
<path d="" fill="#565656" transform="translate(0,0)"/>
<path d="" fill="#FEFEFE" transform="translate(0,0)"/>
<path d="" fill="#FEFCE4" transform="translate(0,0)"/>
<path d="" fill="#000000" transform="translate(0,0)"/>
<path d="" fill="#FEFEFE" transform="translate(0,0)"/>
<path d="" fill="#FEFEE6" transform="translate(0,0)"/>
<path d="" fill="#000000" transform="translate(0,0)"/>
<path d="" fill="#949090" transform="translate(0,0)"/>
<path d="" fill="#ECD6BA" transform="translate(0,0)"/>
<path d="" fill="#645E60" transform="translate(0,0)"/>
<path d="" fill="#000000" transform="translate(0,0)"/>
<path d="" fill="#FEF8E8" transform="translate(0,0)"/>
<path d="" fill="#ACAAAC" transform="translate(0,0)"/>
<path d="" fill="#686868" transform="translate(0,0)"/>
<path d="" fill="#262626" transform="translate(0,0)"/>
<path d="" fill="#FEFCDC" transform="translate(0,0)"/>
<path d="" fill="#626062" transform="translate(0,0)"/>
<path d="" fill="#585858" transform="translate(0,0)"/>
<path d="" fill="#0E0E0E" transform="translate(0,0)"/>
<path d="" fill="#161616" transform="translate(0,0)"/>
<path d="" fill="#7C787C" transform="translate(0,0)"/>
<path d="" fill="#2A2A2A" transform="translate(0,0)"/>
<path d="" fill="#848286" transform="translate(0,0)"/>
<path d="" fill="#040406" transform="translate(0,0)"/>
<path d="" fill="#707074" transform="translate(0,0)"/>
<path d="" fill="#9A9A9C" transform="translate(0,0)"/>
<path d="" fill="#000000" transform="translate(0,0)"/>
<path d="" fill="#7A7A7A" transform="translate(0,0)"/>
<path d="" fill="#727272" transform="translate(0,0)"/>
<path d="" fill="#121212" transform="translate(0,0)"/>
</svg>
